# xmcd
#
# Track frame offsets: 
#        150
#        16739
#        32708
#        51313
#        67061
#        85077
#        102827
#        119436
#        135391
#        151176
#        166874
#        186273
#
# Disc length: 2778 seconds
#
# Revision: 0
# Processed by: cddbd v1.5.2PL0 Copyright (c) Steve Scherf et al.
# Submitted via: ExactAudioCopy v1.0b4
#
DISCID=940ad80c
DTITLE=Big Daddy Stallings - Slow Rollin'
DYEAR=2016
DGENRE=Blues
TTITLE0=What You Want Me to Do
TTITLE1=Dance All Night
TTITLE2=Slow Rollin'
TTITLE3=Tonkin U.S. of A.
TTITLE4=Goodbye, You Gone
TTITLE5=At the Club
TTITLE6=Wish It Was Me
TTITLE7=Boody Watchin' (Radio Mix)
TTITLE8=Leroy's Thang
TTITLE9=Hey Big Daddy
TTITLE10=The 3rd Ward
TTITLE11=Boody Watchin' (Extended Mix)
EXTD=
EXTT0=
EXTT1=
EXTT2=
EXTT3=
EXTT4=
EXTT5=
EXTT6=
EXTT7=
EXTT8=
EXTT9=
EXTT10=
EXTT11=
PLAYORDER=
